<svg xmlns="http://www.w3.org/2000/svg" viewBox="0 0 495 493"><defs><style>.cls-1{fill:#02ccfe;}.cls-2{fill:#fdfefe;}.cls-3{fill:#7ce4fe;}.cls-4{fill:#52dcfe;}.cls-5{fill:#fcfefe;}.cls-6{fill:#03ccfe;}.cls-7{fill:#fcfdfe;}.cls-8{fill:#fcfdfd;}.cls-9{fill:#fbfdfd;}.cls-10{fill:#476f6d;}.cls-11{fill:#476e6c;}.cls-12{fill:#466e6c;}</style></defs><g id="Layer_2" data-name="Layer 2"><g id="Layer_1-2" data-name="Layer 1"><path class="cls-1" d="M263,493H231a32.66,32.66,0,0,0-4.06-1.13c-9.72-1.4-19.55-2.22-29.16-4.15C94.09,466.89,14.58,380.83,1.84,275.93A73.38,73.38,0,0,0,0,268V225a17.89,17.89,0,0,0,1.13-3C4,207.5,5.44,192.54,9.91,178.55,40.58,82.65,105.62,24.53,204.17,4,212,2.3,220.05,1.3,228,0h38a10.84,10.84,0,0,0,2.6.94c28.76,2.58,56.56,9.19,82.46,22,86.25,42.67,134.28,111.87,143.07,207.94-.05,9.18-.13,18.36-.11,27.54a8,8,0,0,0,1,2.57v2a31.28,31.28,0,0,0-1.15,4c-1.43,9.71-2.24,19.54-4.24,29.12C468.33,398.32,384.67,476.08,281,490.35,275,491.17,269,492.11,263,493ZM247.14,31.32C128,31.73,31.49,128.22,31.73,246.59,32,365.31,128.6,461.4,247.58,461.2s215.61-96.54,215.42-215S365.63,30.9,247.14,31.32Z"/><path class="cls-2" d="M263,493c6-.89,12-1.83,17.95-2.65,103.72-14.27,187.38-92,208.66-194.19,2-9.58,2.81-19.41,4.24-29.12a31.28,31.28,0,0,1,1.15-4V493Z"/><path class="cls-2" d="M494.13,230.89C485.34,134.82,437.31,65.62,351.06,23c-25.9-12.82-53.7-19.43-82.46-22A10.84,10.84,0,0,1,266,0H495V231A6.47,6.47,0,0,0,494.13,230.89Z"/><path class="cls-2" d="M0,268a73.38,73.38,0,0,1,1.84,7.93c12.74,104.9,92.25,191,195.94,211.79,9.61,1.93,19.44,2.75,29.16,4.15A32.66,32.66,0,0,1,231,493H0Z"/><path class="cls-2" d="M228,0c-7.95,1.3-16,2.3-23.83,4C105.62,24.53,40.58,82.65,9.91,178.55,5.44,192.54,4,207.5,1.13,222A17.89,17.89,0,0,1,0,225V0Z"/><path class="cls-3" d="M494.13,230.89a6.47,6.47,0,0,1,.87.11v30a8,8,0,0,1-1-2.57C494,249.25,494.08,240.07,494.13,230.89Z"/><path class="cls-4" d="M242,493h0Z"/><path class="cls-5" d="M247.14,31.32C365.63,30.9,462.81,127.62,463,246.15S366.68,461,247.58,461.2,32,365.31,31.73,246.59C31.49,128.22,128,31.73,247.14,31.32Zm1.59,397.94a27.27,27.27,0,0,0,2-5.08c.78-4.45,3.36-5.75,7.65-5.78A112.59,112.59,0,0,0,272.25,417c78.07-10.28,141.44-76.77,147.34-155.42.67-9,2.77-14.27,11.78-15.78.15,0,.23-.44.47-.95a38.38,38.38,0,0,0-5.11-1.86c-4.85-1.06-6.62-3.5-6.91-8.88A158.54,158.54,0,0,0,397,159.89C366.75,110,322.47,81.27,264.25,75c-8-.85-14.14-1.9-15.32-11.08,0-.15-.41-.26-.84-.51a33.28,33.28,0,0,0-2,5.14c-.91,4.29-3.31,5.47-7.69,5.67a178.36,178.36,0,0,0-24.26,2.85c-73.83,13.77-131.62,76.4-138.76,151-.85,8.85-2.19,15.3-12.1,16.62-.22,0-.38.5-.67.92a42.44,42.44,0,0,0,6.05,2.28c4.22.92,5.84,3.16,5.79,7.6a98.49,98.49,0,0,0,1.43,14.9C87.15,349.75,151.84,411.23,231.66,418c8.15.69,14.88,1.45,16.51,11C248.19,429.06,248.42,429.11,248.73,429.26Z"/><path class="cls-6" d="M248.73,429.26c-.31-.15-.54-.2-.56-.28-1.63-9.54-8.36-10.3-16.51-11C151.84,411.23,87.15,349.75,75.9,270.38a98.49,98.49,0,0,1-1.43-14.9c0-4.44-1.57-6.68-5.79-7.6a42.44,42.44,0,0,1-6.05-2.28c.29-.42.45-.9.67-.92,9.91-1.32,11.25-7.77,12.1-16.62,7.14-74.57,64.93-137.2,138.76-151a178.36,178.36,0,0,1,24.26-2.85c4.38-.2,6.78-1.38,7.69-5.67a33.28,33.28,0,0,1,2-5.14c.43.25.82.36.84.51,1.18,9.18,7.36,10.23,15.32,11.08C322.47,81.27,366.75,110,397,159.89a158.54,158.54,0,0,1,22.79,74.23c.29,5.38,2.06,7.82,6.91,8.88a38.38,38.38,0,0,1,5.11,1.86c-.24.51-.32.93-.47.95-9,1.51-11.11,6.82-11.78,15.78-5.9,78.65-69.27,145.14-147.34,155.42a112.59,112.59,0,0,1-13.91,1.39c-4.29,0-6.87,1.33-7.65,5.78A27.27,27.27,0,0,1,248.73,429.26ZM379.05,225.52l29.52,11.09c-4-86.68-79.71-149.6-151.52-150.54l10.33,28.12c.85,2.2,1.69,4.39,2.54,6.58q12.68,35.43,25.35,70.82a6.83,6.83,0,0,1-1.29,1.17c-14.78,6.89-29.53,13.82-44.4,20.51-1.49.67-3.89.29-5.49-.43-11.52-5.2-23-10.6-34.4-16-3.41-1.61-6.79-3.3-10.36-5,.84-2.32,1.51-4.18,2.2-6l24.63-65.4,2.46-6.28,11-28.46C154.28,88.31,87.82,161.72,86.52,236.42l28.63-10.52,6.35-2.28L193,198.26a6.38,6.38,0,0,1,.95,1.18c6.75,14.85,13.56,29.67,20.11,44.61.66,1.5.26,3.88-.46,5.48-3.83,8.5-7.92,16.88-11.93,25.29-3.06,6.41-6.13,12.81-9.25,19.33-4.52-1.69-8.55-3.21-12.59-4.7l-58.5-21.53-6.26-2.5L86.15,254.48C89.06,343,167.72,407.17,239.48,406.55c-3.71-9.6-7.35-19-11-28.45-.79-2-1.59-4-2.38-6q-13.5-35.92-27-71.84a8,8,0,0,1,1.33-1.06c14.87-6.68,29.72-13.41,44.67-19.89,1.5-.65,3.86-.24,5.48.46,11.28,4.91,22.48,10,33.7,15.08L295.71,300c-.83,2.42-1.46,4.29-2.13,6.15l-23.64,65.75-2.43,6.21L256.8,407.45c44.44-3.53,81.35-20.95,110.84-53.43,25.44-28,38.9-61.13,41.42-99.77l-29.32,11.1-6.58,2.59L302,294.17c-7.33-15.5-14.57-30.63-21.57-45.88-.61-1.34,0-3.55.63-5.09,2.84-6.56,5.91-13,8.9-19.52l11.73-25.46L373,223.56Z"/><path class="cls-7" d="M373,223.57l-71.3-25.35L290,223.68c-3,6.5-6.06,13-8.9,19.52-.66,1.54-1.24,3.75-.63,5.09,7,15.25,14.24,30.38,21.57,45.88l71.16-26.23c-7.46,50.05-48.91,94.87-103.22,104l23.64-65.75c.67-1.86,1.3-3.73,2.13-6.15l-11.42-5.16c-11.22-5.05-22.42-10.17-33.7-15.08-1.62-.7-4-1.11-5.48-.46-15,6.48-29.8,13.21-44.67,19.89a8,8,0,0,0-1.33,1.06q13.48,35.93,27,71.84c-1.31-.18-2.64-.29-3.94-.56-52.38-10.93-90.26-49.85-100.86-103.63l58.5,21.53c4,1.49,8.07,3,12.59,4.7,3.12-6.52,6.19-12.92,9.25-19.33,4-8.41,8.1-16.79,11.93-25.29.72-1.6,1.12-4,.46-5.48-6.55-14.94-13.36-29.76-20.11-44.61a6.38,6.38,0,0,0-.95-1.18L121.5,223.62c10.35-53.75,50.4-93.25,104.66-103.22l-24.63,65.41c-.69,1.85-1.36,3.71-2.2,6,3.57,1.74,6.95,3.43,10.36,5,11.45,5.36,22.88,10.76,34.4,16,1.6.72,4,1.1,5.49.43,14.87-6.69,29.62-13.62,44.4-20.51a6.83,6.83,0,0,0,1.29-1.17q-12.66-35.37-25.35-70.82C319.74,127.55,365.78,173.47,373,223.57Z"/><path class="cls-8" d="M228.48,378.1c3.65,9.43,7.29,18.85,11,28.45C167.72,407.17,89.06,343,86.15,254.48L115,265.42q10.8,66.38,69.69,98.82C198.31,371.74,212.79,377,228.48,378.1Z"/><path class="cls-8" d="M379.74,265.35l29.32-11.1c-2.52,38.64-16,71.77-41.42,99.77-29.49,32.48-66.4,49.9-110.84,53.43l10.71-29.33c1.81-.21,3.64-.32,5.43-.67A133.79,133.79,0,0,0,379.74,265.35Z"/><path class="cls-8" d="M115.15,225.9,86.52,236.42c1.3-74.7,67.76-148.11,153.13-150.75l-11,28.46c-11.79,3.35-24.24,5.26-35.26,10.3C149.66,144.38,123.72,178.59,115.15,225.9Z"/><path class="cls-9" d="M267.38,114.19,257.05,86.07c71.81.94,147.55,63.86,151.52,150.54l-29.52-11.09a42.58,42.58,0,0,0-.43-4.93,130.86,130.86,0,0,0-21.55-50.49C335,139,304.92,120.57,267.38,114.19Z"/><path class="cls-10" d="M115.15,225.9c8.57-47.31,34.51-81.52,78.21-101.47,11-5,23.47-7,35.26-10.3l-2.46,6.27c-54.26,10-94.31,49.47-104.66,103.22Z"/><path class="cls-11" d="M228.48,378.1c-15.69-1.12-30.17-6.36-43.76-13.86Q126,331.84,115,265.42l6.26,2.5c10.6,53.78,48.48,92.7,100.86,103.63,1.3.27,2.63.38,3.95.56C226.89,374.11,227.69,376.1,228.48,378.1Z"/><path class="cls-12" d="M379.74,265.35a133.79,133.79,0,0,1-106.8,112.1c-1.79.35-3.62.46-5.43.67l2.43-6.2c54.31-9.11,95.76-53.93,103.22-104Z"/><path class="cls-12" d="M267.38,114.19C304.92,120.57,335,139,357.07,170.1a130.86,130.86,0,0,1,21.55,50.49,42.58,42.58,0,0,1,.43,4.93l-6.06-2c-7.21-50.09-53.25-96-103.07-102.79C269.07,118.58,268.23,116.39,267.38,114.19Z"/></g></g></svg>